<?xml version="1.0" encoding="UTF-8" standalone="no"?>
<svg
   xmlns:dc="http://purl.org/dc/elements/1.1/"
   xmlns:cc="http://creativecommons.org/ns#"
   xmlns:rdf="http://www.w3.org/1999/02/22-rdf-syntax-ns#"
   xmlns:svg="http://www.w3.org/2000/svg"
   xmlns="http://www.w3.org/2000/svg"
   xmlns:sodipodi="http://sodipodi.sourceforge.net/DTD/sodipodi-0.dtd"
   xmlns:inkscape="http://www.inkscape.org/namespaces/inkscape"
   height="1000"
   width="1000"
   id="svg2"
   version="1.1"
   inkscape:version="0.48.4 r9939"
   sodipodi:docname="mail.svg">
  <metadata
     id="metadata10">
    <rdf:RDF>
      <cc:Work
         rdf:about="">
        <dc:format>image/svg+xml</dc:format>
        <dc:type
           rdf:resource="http://purl.org/dc/dcmitype/StillImage" />
        <dc:title></dc:title>
      </cc:Work>
    </rdf:RDF>
  </metadata>
  <defs
     id="defs8" />
  <sodipodi:namedview
     pagecolor="#ffffff"
     bordercolor="#666666"
     borderopacity="1"
     objecttolerance="10"
     gridtolerance="10"
     guidetolerance="10"
     inkscape:pageopacity="0"
     inkscape:pageshadow="2"
     inkscape:window-width="640"
     inkscape:window-height="480"
     id="namedview6"
     showgrid="false"
     inkscape:zoom="0.236"
     inkscape:cx="436.44068"
     inkscape:cy="500"
     inkscape:window-x="9"
     inkscape:window-y="30"
     inkscape:window-maximized="0"
     inkscape:current-layer="svg2" />
  <path
     d="M 4,552.84932 4,143.62999 Q 4,92.47758 36.519081,55.096967 69.038162,17.716356 116.5,17.716356 l 675,0 q 47.46094,0 79.98092,37.380611 Q 904.0009,92.47758 904,143.62999 l 0,409.21933 q 0,53.11981 -32.51908,89.51723 -32.51908,36.39741 -79.98092,36.39641 l -675,0 q -47.460938,0 -79.980919,-36.39641 Q 3.9990999,605.97014 4,552.84932 z m 56.25,0 q 0,25.57621 16.698769,44.26701 16.698768,18.69081 39.551231,18.68981 l 675,0 q 22.85156,0 39.55123,-18.68981 16.69967,-18.6898 16.69877,-44.26701 L 628.02344,367.91366 504.97656,470.21849 Q 482.125,489.8925 454,489.8925 q -28.125,0 -50.97656,-19.67401 L 279.97656,367.91366 z m 0,-39.34801 L 257.125,348.23966 60.25,182.97801 l 0,330.5233 z m 0,-369.87132 219.72656,184.93566 24.60938,19.67401 116.01562,98.37003 q 14.0625,11.8044 33.39844,11.8044 19.33594,0 33.39844,-11.8044 L 847.75,143.62999 q 0,-25.5762 -16.69877,-44.26701 Q 814.35246,80.67217 791.5,80.67317 l -675,0 q -22.851563,0 -39.551231,18.68981 Q 60.2491,118.05278 60.25,143.62999 z m 590.625,204.60967 196.875,165.26165 0,-330.5233 z"
     id="path4"
     inkscape:connector-curvature="0"
     inkscape:export-filename="/home/toli/QT_App/CambusaCritica/qml/CambusaCritica/images/mail_to.png"
     inkscape:export-xdpi="20"
     inkscape:export-ydpi="20" />
  <text
     xml:space="preserve"
     style="font-size:286.29058838px;font-style:normal;font-variant:normal;font-weight:bold;font-stretch:normal;text-align:end;line-height:125%;letter-spacing:0px;word-spacing:0px;writing-mode:lr-tb;text-anchor:end;fill:#000000;fill-opacity:1;stroke:none;font-family:Impact;-inkscape-font-specification:Impact Bold"
     x="704.83496"
     y="1028.4045"
     id="text2987"
     sodipodi:linespacing="125%"
     transform="scale(1.0561648,0.94682194)"
     inkscape:export-filename="/home/toli/QT_App/CambusaCritica/qml/CambusaCritica/images/mail_to.png"
     inkscape:export-xdpi="20"
     inkscape:export-ydpi="20"><tspan
       sodipodi:role="line"
       id="tspan2989"
       x="704.83496"
       y="1028.4045"
       style="font-style:normal;font-variant:normal;font-weight:bold;font-stretch:normal;font-family:Impact;-inkscape-font-specification:Impact Bold">MAIL</tspan></text>
</svg>
