<?xml version="1.0" encoding="UTF-8" standalone="no"?>
<!-- Generator: Adobe Illustrator 15.0.2, SVG Export Plug-In . SVG Version: 6.00 Build 0)  -->

<svg
   xmlns:dc="http://purl.org/dc/elements/1.1/"
   xmlns:cc="http://creativecommons.org/ns#"
   xmlns:rdf="http://www.w3.org/1999/02/22-rdf-syntax-ns#"
   xmlns:svg="http://www.w3.org/2000/svg"
   xmlns="http://www.w3.org/2000/svg"
   xmlns:sodipodi="http://sodipodi.sourceforge.net/DTD/sodipodi-0.dtd"
   xmlns:inkscape="http://www.inkscape.org/namespaces/inkscape"
   version="1.1"
   id="Layer_1"
   x="0px"
   y="0px"
   width="512px"
   height="606.315px"
   viewBox="0 0 512 606.315"
   enable-background="new 0 0 512 606.315"
   xml:space="preserve"
   inkscape:version="0.48.4 r9939"
   sodipodi:docname="print.svg"><metadata
     id="metadata9"><rdf:RDF><cc:Work
         rdf:about=""><dc:format>image/svg+xml</dc:format><dc:type
           rdf:resource="http://purl.org/dc/dcmitype/StillImage" /><dc:title></dc:title></cc:Work></rdf:RDF></metadata><defs
     id="defs7" /><sodipodi:namedview
     pagecolor="#ffffff"
     bordercolor="#666666"
     borderopacity="1"
     objecttolerance="10"
     gridtolerance="10"
     guidetolerance="10"
     inkscape:pageopacity="0"
     inkscape:pageshadow="2"
     inkscape:window-width="640"
     inkscape:window-height="480"
     id="namedview5"
     showgrid="false"
     inkscape:zoom="0.38923662"
     inkscape:cx="256"
     inkscape:cy="303.1575"
     inkscape:window-x="669"
     inkscape:window-y="40"
     inkscape:window-maximized="0"
     inkscape:current-layer="Layer_1" /><path
     d="M215.579,417.685h202.105V229.053H256V53.895H53.895V512h121.264v-53.895C175.158,435.789,193.257,417.685,215.579,417.685z   M175.158,565.895H0V0h299.789l171.79,171.789v245.896c22.315,0,40.421,18.104,40.421,40.421v107.789  c0,22.316-18.105,40.421-40.421,40.421h-256C193.257,606.315,175.158,588.211,175.158,565.895z M296.421,70.737v104.421h104.421  L296.421,70.737z M215.579,565.895h26.947v-40.421H256c22.315,0,40.421-11.368,40.421-33.685c0-22.315-18.105-33.684-40.421-33.684  h-40.421V565.895z M256,498.526h-13.474v-13.474H256c7.447,0,13.474-0.711,13.474,6.736  C269.474,499.237,263.447,498.526,256,498.526z M404.211,565.895h26.947v-40.421h26.947v-26.947h-26.947v-13.474h40.421v-26.947  h-67.368V565.895z M309.895,458.105v107.789h40.421c22.316,0,40.422-18.105,40.422-40.421v-26.947  c0-22.315-18.105-40.421-40.422-40.421H309.895z M363.789,525.474c0,7.447-6.026,13.474-13.474,13.474h-13.474v-53.895h13.474  c7.447,0,13.474,6.026,13.474,13.474V525.474z"
     id="path3"
     inkscape:export-filename="/home/toli/QT_App/CambusaCritica/qml/CambusaCritica/images/pdf_to.png"
     inkscape:export-xdpi="200"
     inkscape:export-ydpi="200" /></svg>